<svg xmlns="http://www.w3.org/2000/svg" viewBox="7.00 10.25 123.50 88.00" fill="#A15438"><defs></defs><path transform="matrix(1,0,0,-1,46.095,73.194)" d="M0 0C3.38 .78 6.63 1.755 9.75 3.055 11.115 3.64 12.351 4.29 13.521 5.2 14.105 5.655 14.625 6.24 14.95 6.955 15.08 7.28 15.146 7.475 15.146 7.67 15.146 7.995 15.016 8.255 14.625 8.646 13.521 9.62 12.22 10.335 10.855 10.92 8.385 12.09 5.72 12.871 2.99 13.521-.976 14.431-4.94 15.146-8.905 15.73-13.846 16.576-18.851 17.226-23.791 18.331-26.131 18.786-28.342 19.436-30.552 20.411-31.916 20.996-33.151 21.776-34.191 22.881L-36.076 25.026C-37.441 26.391-37.962 27.951-37.962 29.576-37.962 30.356-37.767 31.201-37.507 32.046-36.856 34.126-35.622 35.881-34.257 37.506-31.526 40.756-28.342 43.356-24.831 45.697-18.266 50.182-11.246 53.627-3.836 56.422 .779 58.112 5.395 59.477 10.205 60.452 12.936 60.972 15.665 61.362 18.396 61.622 20.346 61.752 22.23 61.882 24.115 61.882H25.351C28.991 61.752 32.631 61.297 35.946 59.802 37.116 59.282 38.091 58.632 39.066 57.787 40.366 56.552 40.887 54.992 41.081 53.172L41.211 51.417C41.276 50.962 41.341 50.572 41.341 50.117 41.276 48.817 40.887 47.517 40.236 46.347 38.871 44.072 37.051 42.381 34.906 40.887 31.591 38.352 27.756 36.596 23.791 35.231 19.825 33.801 15.795 32.826 11.635 32.306 10.205 32.111 8.71 31.981 7.28 31.981 6.564 31.981 5.785 32.046 5.07 32.111 4.42 32.241 3.705 32.371 3.055 32.566 2.925 32.566 2.859 32.631 2.729 32.631 2.6 32.761 2.34 32.891 2.34 33.086V33.151C2.404 33.281 2.47 33.281 2.535 33.281 2.665 33.281 2.859 33.216 2.99 33.216 4.03 32.956 5.07 32.826 6.11 32.826 7.15 32.826 8.19 32.956 9.23 33.021 14.885 33.606 20.346 35.296 25.546 37.571 29.445 39.326 33.021 41.406 35.946 44.592 37.506 46.217 38.676 48.037 39.521 50.117 39.651 50.442 39.716 50.767 39.846 51.092 39.977 51.352 39.977 51.612 39.977 51.807 40.041 52.392 39.781 52.847 39.456 53.302 38.546 54.342 37.376 55.122 36.141 55.642 34.256 56.487 32.306 56.877 30.291 57.137 28.73 57.332 27.105 57.462 25.546 57.462H24.57C20.216 57.332 15.86 56.747 11.57 55.772 2.859 53.757-5.396 50.572-13.326 46.347-18.136 43.747-22.816 40.887-27.106 37.376-28.927 35.881-30.682 34.191-32.177 32.306-32.892 31.396-33.542 30.421-33.932 29.381-34.257 28.536-34.451 27.691-34.451 26.846V26.001C-34.387 25.286-34.127 24.701-33.411 24.311-31.526 23.271-29.512 22.556-27.432 21.971-24.051 21.061-20.541 20.476-17.096 19.891-11.181 18.916-5.2 18.006 .715 16.576 3.835 15.86 6.89 15.016 9.815 13.715 11.311 13.065 12.74 12.285 13.91 11.245 14.625 10.66 15.146 10.01 15.535 9.165 15.795 8.71 15.99 8.19 16.12 7.67 16.315 7.28 16.38 6.825 16.38 6.435 16.38 5.85 16.186 5.265 15.795 4.745 15.21 4.03 14.561 3.51 13.846 3.055 11.7 1.69 9.36 .91 6.89 .195 3.185-.975-.585-1.625-4.421-2.145-6.891-2.405-9.36-2.665-11.896-2.665H-12.741C-15.016-2.6-17.355-2.47-19.631-1.82-21.256-1.3-22.816-.715-24.051 .585-24.637 1.235-24.896 1.82-24.896 2.405-24.896 2.99-24.571 3.575-23.986 4.16-23.206 4.94-22.296 5.46-21.386 5.98-19.631 6.825-17.811 7.475-15.991 7.995-11.896 9.1-7.865 10.14-3.836 10.92-2.21 11.245-.65 11.44 .975 11.57 1.104 11.57 1.234 11.635 1.3 11.635 1.495 11.635 1.689 11.505 1.819 11.311 1.95 11.245 1.95 11.18 1.95 11.115 1.95 10.985 1.885 10.92 1.689 10.855 1.43 10.791 1.17 10.791 .845 10.726-2.99 10.271-6.695 9.295-10.4 8.255-13.001 7.54-15.536 6.825-17.941 5.785-19.241 5.265-20.477 4.745-21.711 3.965-22.296 3.64-22.881 3.185-23.336 2.665-23.661 2.275-23.791 1.95-23.791 1.56-23.791 1.105-23.531 .65-22.946 .325-21.516-.52-19.891-.975-18.266-1.3-16.576-1.56-14.886-1.625-13.846-1.625-8.711-1.625-4.355-.975 0 0"/><path transform="matrix(1,0,0,-1,88.588,39.022)" d="M0 0V-.195C-.195-1.17-1.365-2.405-2.99-3.25-3.575-3.51-4.29-4.226-5.006-4.94-5.591-5.655-6.24-6.175-6.5-6.175-6.695-6.175-6.695-6.045-6.695-5.851V-5.655C-6.306-3.965-2.34 .65-.91 .65-.325 .65 0 .455 0 0M-8.646-16.966C-8.516-16.771-8.45-16.511-8.45-16.316-8.45-15.731-8.841-15.146-9.49-15.081-9.881-15.016-10.271-14.951-10.66-14.951-11.766-14.951-12.74-15.341-13.391-16.511-13.456-16.706-13.521-16.836-13.521-16.901-13.521-17.226-11.311-17.291-10.921-17.291H-9.23C-8.971-17.291-8.775-17.226-8.646-16.966M-6.891-10.791C-7.735-10.271-8.516-9.556-9.23-8.775-9.49-8.516-9.62-8.386-9.815-8.386-9.945-8.386-10.141-8.451-10.4-8.646-11.246-9.166-12.025-9.815-12.74-10.466-13.065-10.661-13.261-10.855-13.521-10.986-13.65-11.116-13.846-11.181-14.041-11.181-14.235-11.181-14.431-11.116-14.626-11.051L-15.341-10.661C-15.536-10.466-15.666-10.335-15.666-10.141-15.666-10.011-15.601-9.881-15.406-9.686-15.275-9.426-15.081-9.295-14.82-9.101-13.78-8.255-12.74-7.476-11.636-6.63-11.311-6.371-11.051-6.24-10.791-6.24-10.53-6.24-10.271-6.371-9.881-6.63-9.035-7.28-8.19-7.931-7.735-8.971-7.476-9.556-7.021-10.011-6.37-10.271-6.24-10.335-5.591-10.855-5.591-10.921L-5.655-11.051C-5.655-11.181-5.785-11.181-5.851-11.181H-5.98C-6.37-11.181-6.631-10.986-6.891-10.791M-16.641-23.921C-16.511-23.921-16.381-23.921-16.251-23.856-13.78-23.141-11.181-20.866-9.62-18.916-9.49-18.786-9.426-18.656-9.36-18.461L-9.296-18.396C-9.296-18.201-9.36-18.136-9.556-18.136H-11.766C-12.48-18.136-13.131-18.071-13.716-17.811-13.846-17.746-13.976-17.746-14.041-17.746-14.626-17.746-16.251-21.061-16.511-21.646-16.771-22.166-16.9-22.751-17.031-23.206-17.031-23.726-16.9-23.921-16.641-23.921M-15.86-13.911C-15.536-13.586-15.275-13.261-14.886-13.001-14.561-12.806-14.365-12.676-14.105-12.676-13.846-12.676-13.586-12.806-13.326-13.001-13.195-13.131-13.131-13.196-13.001-13.261-12.74-13.651-12.416-13.716-12.025-13.716H-11.7C-11.44-13.651-11.181-13.651-10.921-13.651-9.36-13.651-7.41-15.146-7.15-16.771-7.15-17.096-6.955-17.161-6.695-17.161H-6.5C-5.33-17.031-4.16-17.031-2.99-16.771-2.86-16.706-2.665-16.706-2.535-16.706H-2.34C-2.21-16.771-2.08-16.836-2.016-16.966-2.016-17.161-2.146-17.291-2.275-17.291-2.601-17.421-2.926-17.486-3.315-17.551-4.42-17.811-5.655-17.876-6.761-18.006-7.086-18.006-7.346-18.071-7.54-18.396-8.775-20.866-12.221-24.051-14.951-25.026-15.341-25.156-15.73-25.221-16.056-25.221-16.511-25.221-16.966-25.091-17.355-24.766-17.486-24.701-17.616-24.636-17.681-24.571-18.851-23.856-19.306-23.206-19.241-21.516V-21.126C-19.241-19.046-17.031-15.536-15.86-13.911"/><path transform="matrix(1,0,0,-1,92.291,56.638)" d="M0 0C-2.34-1.755-4.615-3.64-6.436-5.916-6.63-6.24-6.76-6.371-6.955-6.371-7.085-6.371-7.28-6.305-7.54-6.175-7.67-6.11-7.865-6.045-7.995-5.98-8.646-5.655-8.84-5.46-8.84-4.94-8.84-4.746-8.84-4.615-8.775-4.42-8.516-3.25-8.19-2.145-7.67-.975-7.085 .39-6.5 1.69-5.72 2.99-5.33 3.64-5.07 3.9-4.745 3.9-4.485 3.9-4.16 3.705-3.64 3.38-3.314 3.12-2.925 2.86-2.535 2.6-2.34 2.34-2.145 2.21-2.145 1.95-2.145 1.82-2.21 1.69-2.34 1.495-2.6 .845-2.925 .26-3.25-.39H-3.12C-2.86-.39-2.729-.195-2.6-.065-1.3 1.04 .13 2.145 1.495 3.185 1.82 3.38 2.146 3.64 2.535 3.77 2.665 3.835 2.86 3.835 2.99 3.835 3.186 3.835 3.38 3.77 3.511 3.64 3.9 3.25 4.355 2.86 4.745 2.47 5.006 2.21 5.07 1.95 5.07 1.625L5.006 1.235C4.875 .845 4.745 .455 4.615 0L4.03-1.755C3.965-1.885 3.9-2.015 3.9-2.145 3.9-2.405 4.03-2.535 4.29-2.535 4.42-2.535 4.485-2.47 4.615-2.47 5.33-2.275 6.045-2.015 6.825-1.69 8.905-.78 10.985 .195 13.131 .91 13.326 .975 13.456 1.04 13.65 1.04 13.78 1.04 13.911 1.04 14.041 .91 14.171 .78 14.235 .65 14.235 .585 14.235 .455 14.171 .39 14.041 .26 13.846 .13 13.65 .065 13.521 0 11.051-1.105 8.58-2.34 6.24-3.575 5.98-3.706 5.655-3.835 5.396-3.9 5.07-4.03 4.811-4.095 4.485-4.095 4.096-4.095 3.641-3.9 3.315-3.575 3.056-3.445 2.86-3.25 2.665-3.12 2.016-2.666 1.82-2.145 1.82-1.495 1.82-1.365 1.82-1.17 1.885-1.04 1.95-.455 2.016 .13 2.21 .715 2.275 .845 2.34 .975 2.34 1.105 2.34 1.17 2.34 1.235 2.275 1.365 1.431 .975 .715 .455 0 0"/><path transform="matrix(1,0,0,-1,111.076,55.533)" d="M0 0C-1.17-.585-2.21-1.43-3.185-2.275-4.484-3.38-5.59-4.55-6.564-5.916-6.695-6.11-6.89-6.24-6.89-6.565V-6.76C-3.705-4.811-1.3-2.21 1.171 .325 .716 .325 .325 .195 0 0M-30.811-40.367C-30.03-40.497-29.186-40.562-28.405-40.562-27.431-40.562-26.391-40.432-25.416-40.237-21.516-39.392-18.33-37.376-15.47-34.711-13.585-32.892-11.895-30.812-10.4-28.666-7.67-24.636-5.395-20.411-3.25-16.056-3.25-15.991-3.185-15.926-3.185-15.861-3.12-15.796-3.12-15.73-3.12-15.666-3.12-15.536-3.185-15.471-3.444-15.471-3.574-15.406-3.77-15.406-3.965-15.406-5.785-15.471-7.604-15.471-9.425-15.601-12.09-15.796-14.755-16.186-17.42-16.836-21.516-17.876-25.285-19.371-28.796-21.776-30.94-23.271-32.826-25.026-34.321-27.301-35.426-28.991-36.206-30.876-36.271-32.892V-33.411C-36.336-37.182-33.281-39.847-30.811-40.367M3.445 .78C3.251 .585 3.186 .39 3.186 .13V-.39C3.12-.585 3.056-.715 2.926-.715 2.86-.715 2.73-.715 2.666-.65 2.535-.585 2.405-.52 2.341-.52 2.08-.52 1.95-.715 1.69-.91 .131-2.47-1.56-3.965-3.185-5.46-4.029-6.24-4.939-7.021-5.915-7.605-6.564-8.061-7.02-8.255-7.345-8.255-7.8-8.255-8.125-7.931-8.84-7.28-9.165-6.956-9.295-6.5-9.229-6.11-9.229-5.851-9.229-5.655-9.165-5.396-9.035-4.55-8.71-3.771-8.255-2.99-6.955-.715-5.2 1.17-2.989 2.535-2.665 2.73-2.274 2.86-1.949 2.99-1.56 3.12-1.17 3.185-.779 3.185-.13 3.185 .455 2.99 1.04 2.535 1.301 2.275 1.561 2.015 1.886 1.82 2.08 1.69 2.211 1.56 2.275 1.56 2.405 1.56 2.535 1.69 2.73 1.885 3.186 2.34 3.705 2.86 4.16 3.38 4.615 3.9 5.006 4.42 5.591 4.875 5.851 5.07 6.046 5.135 6.176 5.135 6.371 5.135 6.565 5.005 6.826 4.745 6.826 4.68 6.826 4.615 6.891 4.615 7.476 3.965 7.735 3.185 7.735 2.405 7.735 2.08 7.671 1.755 7.605 1.43 7.28 .39 7.086-.585 6.761-1.56 5.396-5.72 3.705-9.75 1.886-13.716 1.82-13.846 1.756-13.976 1.69-14.105 1.625-14.301 1.625-14.366 1.625-14.496 1.625-14.625 1.69-14.625 2.016-14.625 4.746-14.821 7.541-15.081 10.271-15.406 12.351-15.666 14.366-15.926 16.381-16.446 16.771-16.511 17.161-16.641 17.551-16.771 17.746-16.836 17.941-16.966 18.071-17.031 18.201-17.161 18.396-17.291 18.396-17.486V-17.616C18.331-17.681 18.266-17.681 18.201-17.681 18.071-17.681 17.941-17.616 17.876-17.551 16.056-16.966 14.236-16.771 12.416-16.511 10.011-16.186 7.541-15.991 5.07-15.796L1.756-15.601H1.561C1.105-15.601 .91-15.861 .65-16.251-1.364-20.411-3.64-24.506-6.37-28.276-8.06-30.616-9.945-32.892-12.025-34.906-14.625-37.312-17.485-39.392-20.931-40.562-22.881-41.212-24.83-41.667-26.846-41.667-27.886-41.667-28.926-41.537-30.03-41.277-32.176-40.757-34.19-39.912-35.751-38.222-37.051-36.792-37.571-35.102-37.571-33.281V-32.696C-37.311-29.511-35.816-26.911-33.736-24.506-31.916-22.361-29.576-20.671-27.041-19.306-22.62-16.966-17.94-15.471-12.936-14.756-10.855-14.496-8.775-14.301-6.695-14.301H-4.875C-4.29-14.301-3.705-14.301-3.12-14.366-2.665-14.366-2.34-14.236-2.08-13.781-.585-10.465 1.04-7.15 2.535-3.835 3.315-2.145 4.096-.39 4.811 1.365 4.94 1.56 5.07 1.755 5.07 2.145 4.485 1.69 4.03 1.235 3.445 .78"/></svg>